<?xml version="1.0" encoding="UTF-8"?>
<svg width="1378px" height="404px" viewBox="0 0 1378 404" version="1.1" xmlns="http://www.w3.org/2000/svg" xmlns:xlink="http://www.w3.org/1999/xlink">
    <title>Sketch Media Kit / Logos / Logo-on-Dark-Transparent</title>
    <g id="Sketch-Media-Kit-/-Logos-/-Logo-on-Dark-Transparent" stroke="none" fill="none" fill-rule="nonzero">
        <path d="M1283.04619,158.629877 C1262.9135,158.629877 1246.0903,172.366141 1235.88606,188.300207 L1235.88606,106.981526 L1204.44597,106.981526 L1204.44597,299.289218 L1235.88606,299.289218 L1235.88606,231.7068 C1235.88606,203.410097 1253.81242,186.651855 1271.73879,186.651855 C1288.83779,186.651855 1296.55991,197.366141 1296.55991,222.640866 L1296.55991,299.289218 L1328,299.289218 L1328,212.750756 C1328,178.684822 1312.00417,158.629877 1283.04619,158.629877 Z M1118.19957,302.697404 C1153.50072,302.697404 1177.21868,279.895206 1180.80395,247.752349 L1149.36386,247.752349 C1146.88175,263.686415 1137.78067,276.598503 1119.02694,276.598503 C1098.34267,276.598503 1084.55316,260.389712 1084.55316,230.719382 C1084.55316,201.598503 1097.79109,184.840261 1118.47536,184.840261 C1136.9533,184.840261 1147.43333,196.653448 1149.36386,211.763338 L1181.07974,211.763338 C1178.04605,180.994107 1154.32809,158.74136 1118.75115,158.74136 C1078.76156,158.74136 1052.56149,188.41169 1052.56149,230.994107 C1052.56149,273.576525 1078.76156,302.697404 1118.19957,302.697404 Z M1023.20781,272.776238 C1009.69409,272.776238 1006.10882,267.831183 1006.10882,257.941073 L1006.10882,186.237777 L1037.27312,186.237777 L1037.27312,161.512502 L1006.10882,161.512502 L1006.10882,110.963051 L974.668731,129.09492 L974.668731,161.512502 L947.641287,161.512502 L947.641287,186.237777 L974.668731,186.237777 L974.668731,265.083931 C974.668731,287.611403 988.182453,299.149865 1014.38253,299.149865 L1046.37419,299.149865 L1046.37419,272.776238 L1023.20781,272.776238 Z M876.763194,158.74136 C915.925409,158.74136 940.470741,186.213888 940.470741,227.147953 C940.470741,228.52158 940.470741,230.719382 940.19495,234.565536 L841.186253,234.565536 C842.840994,261.213888 856.906297,276.873228 878.417936,276.873228 C894.13798,276.873228 904.618009,269.180921 908.479072,257.093008 L939.36758,257.093008 C934.127565,282.917184 912.615926,302.697404 877.866355,302.697404 C836.773609,302.697404 809.746165,274.125975 809.746165,230.994107 C809.746165,187.862239 836.773609,158.74136 876.763194,158.74136 Z M680.844203,106.981526 L712.284291,106.981526 L712.284291,222.915592 L769.648662,161.651855 L807.156135,161.651855 L755.307569,214.673833 L810.741408,299.289218 L773.785515,299.289218 L733.52014,234.179328 L712.284291,255.882625 L712.284291,299.289218 L680.844203,299.289218 L680.844203,106.981526 Z M876.815155,183.625896 C859.99195,183.625896 846.754018,194.889632 843.720325,210.823698 L907.427872,210.823698 C905.77313,193.790731 893.63836,183.625896 876.815155,183.625896 Z M573.905537,303 C622.9962,303 655.815239,281.021978 655.815239,241.736264 C655.815239,209.868132 634.57939,195.307692 597.071917,188.43956 L560.116024,181.846154 C536.122273,177.450549 522.884341,170.582418 522.884341,157.120879 C522.884341,142.56044 535.570693,132.67033 563.701298,132.67033 C591.556112,132.67033 615.274073,142.285714 637.888873,155.472527 L650.575224,128.824176 C627.133054,115.087912 600.3814,103 565.080249,103 C517.368537,103 488.686351,125.527473 488.686351,160.142857 C488.686351,190.362637 511.301151,205.197802 552.118107,213.164835 L590.728742,220.307692 C611.6888,224.703297 621.065668,231.296703 621.065668,244.208791 C621.065668,264.813187 600.10561,273.32967 574.181327,273.32967 C541.086498,273.32967 514.610634,258.21978 494.202156,240.087912 L476,265.087912 C493.374785,281.571429 526.745405,303 573.905537,303 Z M220.222955,50.1265478 L307.712702,60.2023259 C312.434667,60.6914457 316.74732,63.1200043 319.633548,66.9152401 L383.158228,152.092021 C387.136463,157.323188 386.916625,164.649553 382.631997,169.629267 L228.421338,351.206864 C223.434203,357.003051 214.725538,357.630369 208.969992,352.608019 C208.473676,352.174928 208.008716,351.706684 207.578662,351.206864 L53.3680035,169.629267 C49.0833754,164.649553 48.8635366,157.323188 52.8417716,152.092021 L116.366452,66.9152401 C119.25268,63.1200043 123.565333,60.6914457 128.287298,60.2023259 L216.142122,50.0887317 C217.546855,49.9435397 218.897293,49.9910709 220.222955,50.1265478 Z M241.181347,73.6554023 C239.240798,71.7575455 236.549822,74.3916222 238.107729,76.3529512 L282.866058,136.204727 C285.374085,139.413571 283.100671,144.456733 278.780024,144.456701 L157.508686,144.456701 C153.188039,144.456733 150.914625,139.413571 153.422652,136.204727 L198.180981,76.3529512 C199.738888,74.3916222 197.047912,71.7575455 195.107363,73.6554023 L133.364624,138.916507 C130.398096,142.001572 124.805689,139.893791 124.86889,135.434084 L124.471916,92.1878991 C124.447912,89.6785318 121.071304,89.3691651 120.483827,91.8267745 L110.261863,142.908112 C109.446563,146.303313 106.697865,149.057736 102.910566,149.944566 L72.6203283,158.431402 C70.2364471,158.998429 70.5866452,162.493086 72.9916349,162.505994 L102.663605,162.505994 C107.839373,162.505994 110.991052,166.138038 112.040112,167.985612 L112.172839,168.231287 L189.921766,304.909039 C191.528306,307.6611 195.956968,305.539908 194.523647,302.523473 L133.75551,172.778979 C131.429611,167.972906 135.079864,162.495831 140.143822,162.495672 L200.764193,162.504067 L218.143921,162.503054 L235.52365,162.499001 L296.144888,162.495672 C301.208846,162.495831 304.859099,167.972906 302.5332,172.778979 L241.765062,302.523473 C240.331742,305.539908 244.760403,307.6611 246.366944,304.909039 L324.115871,168.231287 L324.248598,167.985612 C325.297658,166.138038 328.449337,162.505994 333.625104,162.505994 L363.297075,162.505994 C365.702064,162.493086 366.052263,158.998429 363.668381,158.431402 L333.378144,149.944566 C329.590845,149.057736 326.842147,146.303313 326.026847,142.908112 L315.804883,91.8267745 C315.204351,89.3145516 311.689349,89.6936478 311.820227,92.3584433 L311.419819,135.434084 C311.483021,139.893791 305.890614,142.001572 302.924086,138.916507 Z" id="Logo" fill="#FFFFFF"></path>
    </g>
</svg>